G04 Layer: BottomLayer*
G04 EasyEDA v6.1.51, Thu, 20 Jun 2019 09:31:38 GMT*
G04 df1c83a976b947f6b6385059747db8e2,42ef34e960d344ed9089ed07ec49d284,10*
G04 Gerber Generator version 0.2*
G04 Scale: 100 percent, Rotated: No, Reflected: No *
G04 Dimensions in millimeters *
G04 leading zeros omitted , absolute positions ,3 integer and 3 decimal *
%FSLAX33Y33*%
%MOMM*%
G90*
G71D02*

%ADD11C,0.159995*%
%ADD12R,1.999996X2.499995*%
%ADD14C,1.499997*%
%ADD16C,1.524000*%
%ADD18C,1.299997*%
%ADD20C,1.498600*%
%ADD21R,1.498600X1.498600*%
%ADD22C,1.750060*%
%ADD24C,1.999996*%

%LPD*%
G54D11*
G01X4445Y15748D02*
G01X4445Y14744D01*
G01X9144Y5715D02*
G01X9144Y6832D01*
G01X9144Y6832D02*
G01X4445Y11531D01*
G01X4445Y14744D01*
G01X4445Y14744D01*
G01X9702Y5715D02*
G01X9144Y5715D01*
G01X9702Y5715D02*
G01X10261Y5715D01*
G01X6350Y37592D02*
G01X7340Y37592D01*
G01X20726Y37592D02*
G01X19735Y37592D01*
G01X19735Y37592D02*
G01X18742Y38582D01*
G01X8333Y38582D01*
G01X7340Y37592D01*
G01X10261Y5715D02*
G01X12039Y7493D01*
G01X17073Y7493D01*
G01X16256Y37592D02*
G01X11049Y32385D01*
G01X11049Y31242D01*
G01X19974Y4953D02*
G01X18831Y3807D01*
G01X5971Y3807D01*
G01X4064Y5715D01*
G01X20126Y4953D02*
G01X20642Y4953D01*
G01X19613Y4953D02*
G01X19974Y4953D01*
G01X20126Y4953D02*
G01X19974Y4953D01*
G01X24693Y4953D02*
G01X23667Y4953D01*
G01X23667Y4953D02*
G01X23667Y5466D01*
G01X23152Y5979D01*
G01X21155Y5979D01*
G01X20642Y5466D01*
G01X20642Y4953D01*
G01X19613Y7493D02*
G01X18587Y7493D01*
G01X6604Y5715D02*
G01X7721Y4597D01*
G01X13340Y4597D01*
G01X15209Y6464D01*
G01X18072Y6464D01*
G01X18587Y6979D01*
G01X18587Y7493D01*
G01X13716Y37592D02*
G01X8890Y37592D01*
G54D12*
G01X5969Y31242D03*
G36*
G01X17858Y8278D02*
G01X17858Y6707D01*
G01X16288Y6707D01*
G01X16288Y8278D01*
G01X17858Y8278D01*
G37*
G36*
G01X17858Y5738D02*
G01X17858Y4167D01*
G01X16288Y4167D01*
G01X16288Y5738D01*
G01X17858Y5738D01*
G37*
G36*
G01X20398Y8278D02*
G01X20398Y6707D01*
G01X18828Y6707D01*
G01X18828Y8278D01*
G01X20398Y8278D01*
G37*
G36*
G01X20398Y5738D02*
G01X20398Y4167D01*
G01X18828Y4167D01*
G01X18828Y5738D01*
G01X20398Y5738D01*
G37*
G36*
G01X22938Y8278D02*
G01X22938Y6707D01*
G01X21368Y6707D01*
G01X21368Y8278D01*
G01X22938Y8278D01*
G37*
G36*
G01X22938Y5738D02*
G01X22938Y4167D01*
G01X21368Y4167D01*
G01X21368Y5738D01*
G01X22938Y5738D01*
G37*
G36*
G01X25478Y8278D02*
G01X25478Y6707D01*
G01X23908Y6707D01*
G01X23908Y8278D01*
G01X25478Y8278D01*
G37*
G36*
G01X25478Y5738D02*
G01X25478Y4167D01*
G01X23908Y4167D01*
G01X23908Y5738D01*
G01X25478Y5738D01*
G37*
G54D14*
G01X23225Y37592D03*
G36*
G01X21476Y36842D02*
G01X19976Y36842D01*
G01X19976Y38342D01*
G01X21476Y38342D01*
G01X21476Y36842D01*
G37*
G54D16*
G01X9525Y15748D03*
G36*
G01X5207Y14986D02*
G01X3683Y14986D01*
G01X3683Y16510D01*
G01X5207Y16510D01*
G01X5207Y14986D01*
G37*
G54D18*
G01X7857Y25273D03*
G36*
G01X6508Y24622D02*
G01X5208Y24622D01*
G01X5208Y25923D01*
G01X6508Y25923D01*
G01X6508Y24622D01*
G37*
G54D20*
G01X8890Y37592D03*
G54D21*
G01X6350Y37592D03*
G54D20*
G01X16256Y37592D03*
G54D22*
G01X6604Y5715D03*
G36*
G01X10019Y4839D02*
G01X8268Y4839D01*
G01X8268Y6590D01*
G01X10019Y6590D01*
G01X10019Y4839D01*
G37*
G01X4064Y5715D03*
G54D24*
G01X11049Y31491D02*
G01X11049Y30991D01*
G01X8509Y31491D02*
G01X8509Y30991D01*
G54D20*
G01X13716Y37592D02*
G01X13716Y37592D01*
M00*
M02*
