;Layer: Drill PTH
;EasyEDA v6.1.51, Thu, 20 Jun 2019 09:31:38 GMT
;df1c83a976b947f6b6385059747db8e2,42ef34e960d344ed9089ed07ec49d284,10
;Gerber Generator version 0.2
M48
METRIC,LZ,000.000
;Holesize 1 = 0.600 METRIC
T01C0.600
;Holesize 2 = 0.800 METRIC
T02C0.800
;Holesize 3 = 0.915 METRIC
T03C0.915
;Holesize 4 = 1.141 METRIC
T04C1.141
;Holesize 5 = 1.301 METRIC
T05C1.301
%
G05
G90
T01
X+023225Y+037592
X+020726Y+037592
T02
X+007857Y+025273
X+005858Y+025273
T03
X+017073Y+007493
X+017073Y+004953
X+019613Y+007493
X+019613Y+004953
X+022153Y+007493
X+022153Y+004953
X+024693Y+007493
X+024693Y+004953
X+009525Y+015748
X+004445Y+015748
X+008890Y+037592
X+006350Y+037592
X+016256Y+037592
X+013716Y+037592
T04
X+006604Y+005715
X+009144Y+005715
X+004064Y+005715
T05
X+005969Y+031242
X+011049Y+031242
X+008509Y+031242
M30
