M48
METRIC,LZ,000.000
;FILE_FORMAT=3:3
;TYPE=PLATED
;Layer: PTH_Through
;EasyEDA v6.5.9, 2022-08-24 00:16:20
;10
;Gerber Generator version 0.2
;Holesize 1 = 0.798 mm
T01C0.798
;Holesize 2 = 0.900 mm
T02C0.900
;Holesize 3 = 0.915 mm
T03C0.915
;Holesize 4 = 1.000 mm
T04C1.000
%
G05
G90
T01
X043813Y036246
X043817Y038252
X043817Y040234
X043817Y042240
T02
X037770Y009652
X044272Y009652
T03
X039497Y022606
X042037Y022606
X021971Y028575
X021971Y026035
X024511Y026035
X027051Y028575
X027051Y026035
X029591Y028575
X029591Y026035
X024511Y028575
X011176Y031496
X011176Y026416
T04
X053467Y014478G85X053467Y014478
X056007Y014478G85X056007Y014478
X058547Y014478G85X058547Y014478
X067691Y016637
X067691Y013637
X015113Y013843
X028113Y013843
X028113Y008843
X015113Y008843
M30
