G04 Layer: TopSilkscreenLayer*
G04 EasyEDA v6.5.9, 2022-08-24 00:16:20*
G04 Gerber Generator version 0.2*
G04 Scale: 100 percent, Rotated: No, Reflected: No *
G04 Dimensions in millimeters *
G04 leading zeros omitted , absolute positions ,4 integer and 5 decimal *
%FSLAX45Y45*%
%MOMM*%

%ADD10C,0.4000*%
%ADD11C,0.1524*%
%ADD12C,0.0813*%
%ADD13C,0.1778*%
%ADD14C,0.2032*%
%ADD15C,0.1270*%
%ADD16C,0.2540*%
%ADD17C,0.0107*%

%LPD*%
D10*
X5232400Y827278D02*
G01*
X5232400Y633476D01*
X5232400Y827278D02*
G01*
X5352541Y827278D01*
X5232400Y735076D02*
G01*
X5306313Y735076D01*
X5232400Y633476D02*
G01*
X5352541Y633476D01*
X5413502Y827278D02*
G01*
X5413502Y633476D01*
X5413502Y633476D02*
G01*
X5524245Y633476D01*
X5585206Y827278D02*
G01*
X5585206Y633476D01*
X5585206Y827278D02*
G01*
X5705347Y827278D01*
X5585206Y735076D02*
G01*
X5659120Y735076D01*
X5585206Y633476D02*
G01*
X5705347Y633476D01*
X5904738Y781050D02*
G01*
X5895593Y799592D01*
X5877052Y818134D01*
X5858509Y827278D01*
X5821679Y827278D01*
X5803138Y818134D01*
X5784850Y799592D01*
X5775452Y781050D01*
X5766308Y753363D01*
X5766308Y707389D01*
X5775452Y679450D01*
X5784850Y661162D01*
X5803138Y642620D01*
X5821679Y633476D01*
X5858509Y633476D01*
X5877052Y642620D01*
X5895593Y661162D01*
X5904738Y679450D01*
X6030468Y827278D02*
G01*
X6030468Y633476D01*
X5965697Y827278D02*
G01*
X6094984Y827278D01*
X6155943Y827278D02*
G01*
X6155943Y633476D01*
X6155943Y827278D02*
G01*
X6239256Y827278D01*
X6266941Y818134D01*
X6276086Y808989D01*
X6285229Y790447D01*
X6285229Y771905D01*
X6276086Y753363D01*
X6266941Y744220D01*
X6239256Y735076D01*
X6155943Y735076D01*
X6220713Y735076D02*
G01*
X6285229Y633476D01*
X6401815Y827278D02*
G01*
X6383274Y818134D01*
X6364731Y799592D01*
X6355588Y781050D01*
X6346190Y753363D01*
X6346190Y707389D01*
X6355588Y679450D01*
X6364731Y661162D01*
X6383274Y642620D01*
X6401815Y633476D01*
X6438645Y633476D01*
X6457188Y642620D01*
X6475729Y661162D01*
X6484874Y679450D01*
X6494018Y707389D01*
X6494018Y753363D01*
X6484874Y781050D01*
X6475729Y799592D01*
X6457188Y818134D01*
X6438645Y827278D01*
X6401815Y827278D01*
X6835902Y781050D02*
G01*
X6826504Y799592D01*
X6808215Y818134D01*
X6789674Y827278D01*
X6752590Y827278D01*
X6734302Y818134D01*
X6715759Y799592D01*
X6706615Y781050D01*
X6697218Y753363D01*
X6697218Y707389D01*
X6706615Y679450D01*
X6715759Y661162D01*
X6734302Y642620D01*
X6752590Y633476D01*
X6789674Y633476D01*
X6808215Y642620D01*
X6826504Y661162D01*
X6835902Y679450D01*
X6835902Y707389D01*
X6789674Y707389D02*
G01*
X6835902Y707389D01*
X6970775Y827278D02*
G01*
X6896861Y633476D01*
X6970775Y827278D02*
G01*
X7044690Y633476D01*
X6924547Y697992D02*
G01*
X7016750Y697992D01*
X7105650Y827278D02*
G01*
X7105650Y633476D01*
X7105650Y827278D02*
G01*
X7170165Y827278D01*
X7197852Y818134D01*
X7216393Y799592D01*
X7225538Y781050D01*
X7234936Y753363D01*
X7234936Y707389D01*
X7225538Y679450D01*
X7216393Y661162D01*
X7197852Y642620D01*
X7170165Y633476D01*
X7105650Y633476D01*
X7434325Y781050D02*
G01*
X7425181Y799592D01*
X7406640Y818134D01*
X7388097Y827278D01*
X7351268Y827278D01*
X7332725Y818134D01*
X7314184Y799592D01*
X7305040Y781050D01*
X7295895Y753363D01*
X7295895Y707389D01*
X7305040Y679450D01*
X7314184Y661162D01*
X7332725Y642620D01*
X7351268Y633476D01*
X7388097Y633476D01*
X7406640Y642620D01*
X7425181Y661162D01*
X7434325Y679450D01*
X7434325Y707389D01*
X7388097Y707389D02*
G01*
X7434325Y707389D01*
X7495286Y827278D02*
G01*
X7495286Y633476D01*
X7495286Y827278D02*
G01*
X7615427Y827278D01*
X7495286Y735076D02*
G01*
X7569200Y735076D01*
X7495286Y633476D02*
G01*
X7615427Y633476D01*
X7740904Y827278D02*
G01*
X7740904Y633476D01*
X7676388Y827278D02*
G01*
X7805674Y827278D01*
D11*
X5297424Y2350515D02*
G01*
X5256022Y2241550D01*
X5297424Y2350515D02*
G01*
X5339079Y2241550D01*
X5271515Y2277871D02*
G01*
X5323331Y2277871D01*
X5373370Y2350515D02*
G01*
X5373370Y2241550D01*
X5373370Y2350515D02*
G01*
X5414772Y2241550D01*
X5456427Y2350515D02*
G01*
X5414772Y2241550D01*
X5456427Y2350515D02*
G01*
X5456427Y2241550D01*
X5563361Y2335021D02*
G01*
X5553202Y2345436D01*
X5537454Y2350515D01*
X5516625Y2350515D01*
X5501131Y2345436D01*
X5490718Y2335021D01*
X5490718Y2324607D01*
X5496052Y2314194D01*
X5501131Y2308860D01*
X5511545Y2303779D01*
X5542788Y2293365D01*
X5553202Y2288286D01*
X5558281Y2282952D01*
X5563361Y2272537D01*
X5563361Y2257044D01*
X5553202Y2246629D01*
X5537454Y2241550D01*
X5516625Y2241550D01*
X5501131Y2246629D01*
X5490718Y2257044D01*
X5597652Y2329687D02*
G01*
X5608065Y2335021D01*
X5623813Y2350515D01*
X5623813Y2241550D01*
X5658104Y2329687D02*
G01*
X5668518Y2335021D01*
X5684011Y2350515D01*
X5684011Y2241550D01*
X5718302Y2329687D02*
G01*
X5728715Y2335021D01*
X5744209Y2350515D01*
X5744209Y2241550D01*
X5851397Y2350515D02*
G01*
X5799327Y2241550D01*
X5778500Y2350515D02*
G01*
X5851397Y2350515D01*
D12*
X5775197Y1707642D02*
G01*
X5766054Y1703070D01*
X5756909Y1693671D01*
X5752084Y1684528D01*
X5752084Y1665986D01*
X5756909Y1656842D01*
X5766054Y1647444D01*
X5775197Y1642871D01*
X5789168Y1638300D01*
X5812281Y1638300D01*
X5825997Y1642871D01*
X5835395Y1647444D01*
X5844540Y1656842D01*
X5849111Y1665986D01*
X5849111Y1684528D01*
X5844540Y1693671D01*
X5835395Y1703070D01*
X5825997Y1707642D01*
X5812281Y1707642D01*
X5812281Y1684528D02*
G01*
X5812281Y1707642D01*
X5752084Y1738121D02*
G01*
X5849111Y1738121D01*
X5752084Y1738121D02*
G01*
X5849111Y1802637D01*
X5752084Y1802637D02*
G01*
X5849111Y1802637D01*
X5752084Y1833118D02*
G01*
X5849111Y1833118D01*
X5752084Y1833118D02*
G01*
X5752084Y1865629D01*
X5756909Y1879345D01*
X5766054Y1888489D01*
X5775197Y1893315D01*
X5789168Y1897887D01*
X5812281Y1897887D01*
X5825997Y1893315D01*
X5835395Y1888489D01*
X5844540Y1879345D01*
X5849111Y1865629D01*
X5849111Y1833118D01*
X5498084Y1665986D02*
G01*
X5502909Y1656842D01*
X5512054Y1647444D01*
X5521197Y1642871D01*
X5535168Y1638300D01*
X5558281Y1638300D01*
X5571997Y1642871D01*
X5581395Y1647444D01*
X5590540Y1656842D01*
X5595111Y1665986D01*
X5595111Y1684528D01*
X5590540Y1693671D01*
X5581395Y1703070D01*
X5571997Y1707642D01*
X5558281Y1712213D01*
X5535168Y1712213D01*
X5521197Y1707642D01*
X5512054Y1703070D01*
X5502909Y1693671D01*
X5498084Y1684528D01*
X5498084Y1665986D01*
X5498084Y1742694D02*
G01*
X5567425Y1742694D01*
X5581395Y1747265D01*
X5590540Y1756410D01*
X5595111Y1770379D01*
X5595111Y1779523D01*
X5590540Y1793494D01*
X5581395Y1802637D01*
X5567425Y1807210D01*
X5498084Y1807210D01*
X5498084Y1870202D02*
G01*
X5595111Y1870202D01*
X5498084Y1837689D02*
G01*
X5498084Y1902460D01*
X5244084Y1638300D02*
G01*
X5341111Y1638300D01*
X5244084Y1668779D02*
G01*
X5341111Y1668779D01*
X5244084Y1668779D02*
G01*
X5341111Y1733550D01*
X5244084Y1733550D02*
G01*
X5341111Y1733550D01*
D11*
X3917315Y2591815D02*
G01*
X3901820Y2586736D01*
X3891406Y2570987D01*
X3886327Y2545079D01*
X3886327Y2529586D01*
X3891406Y2503423D01*
X3901820Y2487929D01*
X3917315Y2482850D01*
X3927729Y2482850D01*
X3943477Y2487929D01*
X3953636Y2503423D01*
X3958970Y2529586D01*
X3958970Y2545079D01*
X3953636Y2570987D01*
X3943477Y2586736D01*
X3927729Y2591815D01*
X3917315Y2591815D01*
X3998340Y2508757D02*
G01*
X3993261Y2503423D01*
X3998340Y2498344D01*
X4003675Y2503423D01*
X3998340Y2508757D01*
X4037965Y2570987D02*
G01*
X4048379Y2576321D01*
X4063872Y2591815D01*
X4063872Y2482850D01*
X4098163Y2591815D02*
G01*
X4098163Y2513837D01*
X4103497Y2498344D01*
X4113656Y2487929D01*
X4129404Y2482850D01*
X4139818Y2482850D01*
X4155313Y2487929D01*
X4165727Y2498344D01*
X4170806Y2513837D01*
X4170806Y2591815D01*
X4205097Y2591815D02*
G01*
X4205097Y2482850D01*
X4205097Y2591815D02*
G01*
X4272661Y2591815D01*
X4205097Y2540000D02*
G01*
X4246752Y2540000D01*
X6783042Y1997316D02*
G01*
X6730972Y1924672D01*
X6808950Y1924672D01*
X6783042Y1997316D02*
G01*
X6783042Y1888350D01*
X6915884Y1997316D02*
G01*
X6864068Y1888350D01*
X6843240Y1997316D02*
G01*
X6915884Y1997316D01*
X6950174Y1997316D02*
G01*
X6950174Y1919338D01*
X6955508Y1903844D01*
X6965922Y1893430D01*
X6981416Y1888350D01*
X6991830Y1888350D01*
X7007324Y1893430D01*
X7017738Y1903844D01*
X7023072Y1919338D01*
X7023072Y1997316D01*
X7057362Y1997316D02*
G01*
X7057362Y1888350D01*
X7057362Y1997316D02*
G01*
X7124926Y1997316D01*
X7057362Y1945500D02*
G01*
X7098764Y1945500D01*
X2298700Y5119115D02*
G01*
X2298700Y5010150D01*
X2298700Y5119115D02*
G01*
X2366263Y5119115D01*
X2298700Y5067300D02*
G01*
X2340356Y5067300D01*
X2298700Y5010150D02*
G01*
X2366263Y5010150D01*
X2473197Y5103621D02*
G01*
X2462784Y5114036D01*
X2447290Y5119115D01*
X2426461Y5119115D01*
X2410968Y5114036D01*
X2400554Y5103621D01*
X2400554Y5093207D01*
X2405634Y5082794D01*
X2410968Y5077460D01*
X2421381Y5072379D01*
X2452370Y5061965D01*
X2462784Y5056886D01*
X2468118Y5051552D01*
X2473197Y5041137D01*
X2473197Y5025644D01*
X2462784Y5015229D01*
X2447290Y5010150D01*
X2426461Y5010150D01*
X2410968Y5015229D01*
X2400554Y5025644D01*
X2507488Y5119115D02*
G01*
X2507488Y5010150D01*
X2507488Y5119115D02*
G01*
X2554224Y5119115D01*
X2569972Y5114036D01*
X2575052Y5108702D01*
X2580386Y5098287D01*
X2580386Y5082794D01*
X2575052Y5072379D01*
X2569972Y5067300D01*
X2554224Y5061965D01*
X2507488Y5061965D01*
X2614675Y5056886D02*
G01*
X2708147Y5056886D01*
X2773679Y5119115D02*
G01*
X2757931Y5114036D01*
X2747518Y5098287D01*
X2742438Y5072379D01*
X2742438Y5056886D01*
X2747518Y5030723D01*
X2757931Y5015229D01*
X2773679Y5010150D01*
X2783840Y5010150D01*
X2799588Y5015229D01*
X2810002Y5030723D01*
X2815081Y5056886D01*
X2815081Y5072379D01*
X2810002Y5098287D01*
X2799588Y5114036D01*
X2783840Y5119115D01*
X2773679Y5119115D01*
X2849372Y5098287D02*
G01*
X2859786Y5103621D01*
X2875279Y5119115D01*
X2875279Y5010150D01*
D13*
X2159000Y4055871D02*
G01*
X2159000Y3958844D01*
X2159000Y4055871D02*
G01*
X2218943Y4055871D01*
X2159000Y4009644D02*
G01*
X2195829Y4009644D01*
X2159000Y3958844D02*
G01*
X2218943Y3958844D01*
X2314193Y4041902D02*
G01*
X2305050Y4051300D01*
X2291079Y4055871D01*
X2272538Y4055871D01*
X2258822Y4051300D01*
X2249424Y4041902D01*
X2249424Y4032504D01*
X2254250Y4023613D01*
X2258822Y4019042D01*
X2267965Y4014470D01*
X2295652Y4005071D01*
X2305050Y4000500D01*
X2309622Y3995673D01*
X2314193Y3986276D01*
X2314193Y3972813D01*
X2305050Y3963670D01*
X2291079Y3958844D01*
X2272538Y3958844D01*
X2258822Y3963670D01*
X2249424Y3972813D01*
X2344674Y4055871D02*
G01*
X2344674Y3958844D01*
X2344674Y4055871D02*
G01*
X2386329Y4055871D01*
X2400045Y4051300D01*
X2404618Y4046473D01*
X2409190Y4037076D01*
X2409190Y4023613D01*
X2404618Y4014470D01*
X2400045Y4009644D01*
X2386329Y4005071D01*
X2344674Y4005071D01*
X2462784Y4055871D02*
G01*
X2449068Y4051300D01*
X2444495Y4041902D01*
X2444495Y4032504D01*
X2449068Y4023613D01*
X2458211Y4019042D01*
X2476754Y4014470D01*
X2490470Y4009644D01*
X2499868Y4000500D01*
X2504440Y3991102D01*
X2504440Y3977386D01*
X2499868Y3968242D01*
X2495295Y3963670D01*
X2481325Y3958844D01*
X2462784Y3958844D01*
X2449068Y3963670D01*
X2444495Y3968242D01*
X2439670Y3977386D01*
X2439670Y3991102D01*
X2444495Y4000500D01*
X2453640Y4009644D01*
X2467609Y4014470D01*
X2485897Y4019042D01*
X2495295Y4023613D01*
X2499868Y4032504D01*
X2499868Y4041902D01*
X2495295Y4051300D01*
X2481325Y4055871D01*
X2462784Y4055871D01*
X2539491Y4032504D02*
G01*
X2539491Y4037076D01*
X2544063Y4046473D01*
X2548890Y4051300D01*
X2558034Y4055871D01*
X2576575Y4055871D01*
X2585720Y4051300D01*
X2590291Y4046473D01*
X2594863Y4037076D01*
X2594863Y4028186D01*
X2590291Y4019042D01*
X2581147Y4005071D01*
X2534920Y3958844D01*
X2599690Y3958844D01*
X2685541Y4041902D02*
G01*
X2680970Y4051300D01*
X2667000Y4055871D01*
X2657856Y4055871D01*
X2643886Y4051300D01*
X2634741Y4037076D01*
X2630170Y4014470D01*
X2630170Y3991102D01*
X2634741Y3972813D01*
X2643886Y3963670D01*
X2657856Y3958844D01*
X2662427Y3958844D01*
X2676143Y3963670D01*
X2685541Y3972813D01*
X2690113Y3986276D01*
X2690113Y3991102D01*
X2685541Y4005071D01*
X2676143Y4014470D01*
X2662427Y4019042D01*
X2657856Y4019042D01*
X2643886Y4014470D01*
X2634741Y4005071D01*
X2630170Y3991102D01*
X2775965Y4041902D02*
G01*
X2771393Y4051300D01*
X2757424Y4055871D01*
X2748279Y4055871D01*
X2734309Y4051300D01*
X2725165Y4037076D01*
X2720593Y4014470D01*
X2720593Y3991102D01*
X2725165Y3972813D01*
X2734309Y3963670D01*
X2748279Y3958844D01*
X2752852Y3958844D01*
X2766822Y3963670D01*
X2775965Y3972813D01*
X2780538Y3986276D01*
X2780538Y3991102D01*
X2775965Y4005071D01*
X2766822Y4014470D01*
X2752852Y4019042D01*
X2748279Y4019042D01*
X2734309Y4014470D01*
X2725165Y4005071D01*
X2720593Y3991102D01*
X2909824Y4055871D02*
G01*
X2896108Y4051300D01*
X2886709Y4037076D01*
X2882138Y4014470D01*
X2882138Y4000500D01*
X2886709Y3977386D01*
X2896108Y3963670D01*
X2909824Y3958844D01*
X2919222Y3958844D01*
X2932938Y3963670D01*
X2942336Y3977386D01*
X2946908Y4000500D01*
X2946908Y4014470D01*
X2942336Y4037076D01*
X2932938Y4051300D01*
X2919222Y4055871D01*
X2909824Y4055871D01*
X2977388Y4037076D02*
G01*
X2986531Y4041902D01*
X3000502Y4055871D01*
X3000502Y3958844D01*
D14*
X2143252Y3108452D02*
G01*
X2139950Y3114802D01*
X2133600Y3121152D01*
X2127250Y3124200D01*
X2114550Y3124200D01*
X2108200Y3121152D01*
X2101850Y3114802D01*
X2098802Y3108452D01*
X2095500Y3098800D01*
X2095500Y3082797D01*
X2098802Y3073400D01*
X2101850Y3067050D01*
X2108200Y3060700D01*
X2114550Y3057397D01*
X2127250Y3057397D01*
X2133600Y3060700D01*
X2139950Y3067050D01*
X2143252Y3073400D01*
X2143252Y3082797D01*
X2127250Y3082797D02*
G01*
X2143252Y3082797D01*
X2164334Y3124200D02*
G01*
X2164334Y3057397D01*
X2164334Y3124200D02*
G01*
X2208784Y3057397D01*
X2208784Y3124200D02*
G01*
X2208784Y3057397D01*
X2229865Y3124200D02*
G01*
X2229865Y3057397D01*
X2229865Y3124200D02*
G01*
X2251963Y3124200D01*
X2261615Y3121152D01*
X2267965Y3114802D01*
X2271013Y3108452D01*
X2274315Y3098800D01*
X2274315Y3082797D01*
X2271013Y3073400D01*
X2267965Y3067050D01*
X2261615Y3060700D01*
X2251963Y3057397D01*
X2229865Y3057397D01*
X2352210Y3108452D02*
G01*
X2348908Y3114802D01*
X2342558Y3121152D01*
X2336208Y3124200D01*
X2323508Y3124200D01*
X2317158Y3121152D01*
X2310808Y3114802D01*
X2307760Y3108452D01*
X2304458Y3098800D01*
X2304458Y3082797D01*
X2307760Y3073400D01*
X2310808Y3067050D01*
X2317158Y3060700D01*
X2323508Y3057397D01*
X2336208Y3057397D01*
X2342558Y3060700D01*
X2348908Y3067050D01*
X2352210Y3073400D01*
X2352210Y3082797D01*
X2336208Y3082797D02*
G01*
X2352210Y3082797D01*
X2373292Y3124200D02*
G01*
X2373292Y3057397D01*
X2373292Y3124200D02*
G01*
X2401740Y3124200D01*
X2411392Y3121152D01*
X2414440Y3117850D01*
X2417742Y3111500D01*
X2417742Y3102102D01*
X2414440Y3095752D01*
X2411392Y3092450D01*
X2401740Y3089402D01*
X2373292Y3089402D01*
X2438824Y3124200D02*
G01*
X2438824Y3057397D01*
X2478702Y3124200D02*
G01*
X2472352Y3121152D01*
X2466002Y3114802D01*
X2462954Y3108452D01*
X2459652Y3098800D01*
X2459652Y3082797D01*
X2462954Y3073400D01*
X2466002Y3067050D01*
X2472352Y3060700D01*
X2478702Y3057397D01*
X2491656Y3057397D01*
X2498006Y3060700D01*
X2504356Y3067050D01*
X2507404Y3073400D01*
X2510706Y3082797D01*
X2510706Y3098800D01*
X2507404Y3108452D01*
X2504356Y3114802D01*
X2498006Y3121152D01*
X2491656Y3124200D01*
X2478702Y3124200D01*
X2534836Y3108452D02*
G01*
X2534836Y3111500D01*
X2537884Y3117850D01*
X2541186Y3121152D01*
X2547536Y3124200D01*
X2560236Y3124200D01*
X2566586Y3121152D01*
X2569888Y3117850D01*
X2572936Y3111500D01*
X2572936Y3105150D01*
X2569888Y3098800D01*
X2563538Y3089402D01*
X2531534Y3057397D01*
X2576238Y3057397D01*
X2654132Y3108452D02*
G01*
X2650830Y3114802D01*
X2644480Y3121152D01*
X2638130Y3124200D01*
X2625430Y3124200D01*
X2619080Y3121152D01*
X2612730Y3114802D01*
X2609682Y3108452D01*
X2606380Y3098800D01*
X2606380Y3082797D01*
X2609682Y3073400D01*
X2612730Y3067050D01*
X2619080Y3060700D01*
X2625430Y3057397D01*
X2638130Y3057397D01*
X2644480Y3060700D01*
X2650830Y3067050D01*
X2654132Y3073400D01*
X2654132Y3082797D01*
X2638130Y3082797D02*
G01*
X2654132Y3082797D01*
X2675214Y3124200D02*
G01*
X2675214Y3057397D01*
X2675214Y3124200D02*
G01*
X2703662Y3124200D01*
X2713314Y3121152D01*
X2716362Y3117850D01*
X2719664Y3111500D01*
X2719664Y3102102D01*
X2716362Y3095752D01*
X2713314Y3092450D01*
X2703662Y3089402D01*
X2675214Y3089402D01*
X2740746Y3124200D02*
G01*
X2740746Y3057397D01*
X2780624Y3124200D02*
G01*
X2774274Y3121152D01*
X2767924Y3114802D01*
X2764876Y3108452D01*
X2761574Y3098800D01*
X2761574Y3082797D01*
X2764876Y3073400D01*
X2767924Y3067050D01*
X2774274Y3060700D01*
X2780624Y3057397D01*
X2793578Y3057397D01*
X2799928Y3060700D01*
X2806278Y3067050D01*
X2809326Y3073400D01*
X2812628Y3082797D01*
X2812628Y3098800D01*
X2809326Y3108452D01*
X2806278Y3114802D01*
X2799928Y3121152D01*
X2793578Y3124200D01*
X2780624Y3124200D01*
X2852760Y3124200D02*
G01*
X2843108Y3121152D01*
X2836758Y3111500D01*
X2833456Y3095752D01*
X2833456Y3086100D01*
X2836758Y3070097D01*
X2843108Y3060700D01*
X2852760Y3057397D01*
X2859110Y3057397D01*
X2868508Y3060700D01*
X2874858Y3070097D01*
X2878160Y3086100D01*
X2878160Y3095752D01*
X2874858Y3111500D01*
X2868508Y3121152D01*
X2859110Y3124200D01*
X2852760Y3124200D01*
X2908300Y3124200D02*
G01*
X2908300Y3057397D01*
X2908300Y3124200D02*
G01*
X2937002Y3124200D01*
X2946400Y3121152D01*
X2949702Y3117850D01*
X2952750Y3111500D01*
X2952750Y3105150D01*
X2949702Y3098800D01*
X2946400Y3095752D01*
X2937002Y3092450D01*
X2908300Y3092450D01*
X2930652Y3092450D02*
G01*
X2952750Y3057397D01*
X2973831Y3124200D02*
G01*
X3018281Y3057397D01*
X3018281Y3124200D02*
G01*
X2973831Y3057397D01*
X2143252Y2413000D02*
G01*
X2143252Y2346197D01*
X2120900Y2413000D02*
G01*
X2165350Y2413000D01*
X2186431Y2413000D02*
G01*
X2230881Y2346197D01*
X2230881Y2413000D02*
G01*
X2186431Y2346197D01*
X2321478Y2397252D02*
G01*
X2318176Y2403602D01*
X2311826Y2409952D01*
X2305476Y2413000D01*
X2292776Y2413000D01*
X2286426Y2409952D01*
X2280076Y2403602D01*
X2277028Y2397252D01*
X2273726Y2387600D01*
X2273726Y2371597D01*
X2277028Y2362200D01*
X2280076Y2355850D01*
X2286426Y2349500D01*
X2292776Y2346197D01*
X2305476Y2346197D01*
X2311826Y2349500D01*
X2318176Y2355850D01*
X2321478Y2362200D01*
X2342560Y2413000D02*
G01*
X2342560Y2346197D01*
X2387010Y2413000D02*
G01*
X2387010Y2346197D01*
X2342560Y2381250D02*
G01*
X2387010Y2381250D01*
X2408092Y2324100D02*
G01*
X2465242Y2324100D01*
X2486324Y2413000D02*
G01*
X2486324Y2346197D01*
X2486324Y2413000D02*
G01*
X2515026Y2413000D01*
X2524424Y2409952D01*
X2527726Y2406650D01*
X2530774Y2400300D01*
X2530774Y2390902D01*
X2527726Y2384552D01*
X2524424Y2381250D01*
X2515026Y2378202D01*
X2486324Y2378202D01*
X2551856Y2413000D02*
G01*
X2551856Y2346197D01*
X2551856Y2413000D02*
G01*
X2574208Y2413000D01*
X2583606Y2409952D01*
X2589956Y2403602D01*
X2593258Y2397252D01*
X2596306Y2387600D01*
X2596306Y2371597D01*
X2593258Y2362200D01*
X2589956Y2355850D01*
X2583606Y2349500D01*
X2574208Y2346197D01*
X2551856Y2346197D01*
X2639143Y2413000D02*
G01*
X2639143Y2346197D01*
X2639143Y2413000D02*
G01*
X2667845Y2413000D01*
X2677243Y2409952D01*
X2680545Y2406650D01*
X2683593Y2400300D01*
X2683593Y2393950D01*
X2680545Y2387600D01*
X2677243Y2384552D01*
X2667845Y2381250D01*
X2639143Y2381250D01*
X2661495Y2381250D02*
G01*
X2683593Y2346197D01*
X2749125Y2403602D02*
G01*
X2742775Y2409952D01*
X2733377Y2413000D01*
X2720677Y2413000D01*
X2711025Y2409952D01*
X2704675Y2403602D01*
X2704675Y2397252D01*
X2707977Y2390902D01*
X2711025Y2387600D01*
X2717375Y2384552D01*
X2736425Y2378202D01*
X2742775Y2374900D01*
X2746077Y2371597D01*
X2749125Y2365247D01*
X2749125Y2355850D01*
X2742775Y2349500D01*
X2733377Y2346197D01*
X2720677Y2346197D01*
X2711025Y2349500D01*
X2704675Y2355850D01*
X2792559Y2413000D02*
G01*
X2792559Y2346197D01*
X2770207Y2413000D02*
G01*
X2814657Y2413000D01*
X2857500Y2413000D02*
G01*
X2882900Y2346197D01*
X2908300Y2413000D02*
G01*
X2882900Y2346197D01*
X2977134Y2397252D02*
G01*
X2973831Y2403602D01*
X2967481Y2409952D01*
X2961131Y2413000D01*
X2948431Y2413000D01*
X2942081Y2409952D01*
X2935731Y2403602D01*
X2932684Y2397252D01*
X2929381Y2387600D01*
X2929381Y2371597D01*
X2932684Y2362200D01*
X2935731Y2355850D01*
X2942081Y2349500D01*
X2948431Y2346197D01*
X2961131Y2346197D01*
X2967481Y2349500D01*
X2973831Y2355850D01*
X2977134Y2362200D01*
X3045968Y2397252D02*
G01*
X3042665Y2403602D01*
X3036315Y2409952D01*
X3029965Y2413000D01*
X3017265Y2413000D01*
X3010915Y2409952D01*
X3004565Y2403602D01*
X3001263Y2397252D01*
X2998215Y2387600D01*
X2998215Y2371597D01*
X3001263Y2362200D01*
X3004565Y2355850D01*
X3010915Y2349500D01*
X3017265Y2346197D01*
X3029965Y2346197D01*
X3036315Y2349500D01*
X3042665Y2355850D01*
X3045968Y2362200D01*
D11*
X3797300Y1753615D02*
G01*
X3797300Y1644650D01*
X3797300Y1753615D02*
G01*
X3844036Y1753615D01*
X3859529Y1748536D01*
X3864863Y1743202D01*
X3869943Y1732787D01*
X3869943Y1722373D01*
X3864863Y1711960D01*
X3859529Y1706879D01*
X3844036Y1701800D01*
X3797300Y1701800D02*
G01*
X3844036Y1701800D01*
X3859529Y1696465D01*
X3864863Y1691386D01*
X3869943Y1680971D01*
X3869943Y1665223D01*
X3864863Y1654810D01*
X3859529Y1649729D01*
X3844036Y1644650D01*
X3797300Y1644650D01*
X3904234Y1753615D02*
G01*
X3904234Y1675637D01*
X3909568Y1660144D01*
X3919981Y1649729D01*
X3935475Y1644650D01*
X3945890Y1644650D01*
X3961384Y1649729D01*
X3971797Y1660144D01*
X3977131Y1675637D01*
X3977131Y1753615D01*
X4084065Y1753615D02*
G01*
X4011422Y1644650D01*
X4011422Y1753615D02*
G01*
X4084065Y1753615D01*
X4011422Y1644650D02*
G01*
X4084065Y1644650D01*
X4191000Y1753615D02*
G01*
X4118356Y1644650D01*
X4118356Y1753615D02*
G01*
X4191000Y1753615D01*
X4118356Y1644650D02*
G01*
X4191000Y1644650D01*
X4225290Y1753615D02*
G01*
X4225290Y1644650D01*
X4225290Y1753615D02*
G01*
X4292854Y1753615D01*
X4225290Y1701800D02*
G01*
X4266945Y1701800D01*
X4225290Y1644650D02*
G01*
X4292854Y1644650D01*
X4327143Y1753615D02*
G01*
X4327143Y1644650D01*
X4327143Y1753615D02*
G01*
X4373879Y1753615D01*
X4389627Y1748536D01*
X4394708Y1743202D01*
X4400041Y1732787D01*
X4400041Y1722373D01*
X4394708Y1711960D01*
X4389627Y1706879D01*
X4373879Y1701800D01*
X4327143Y1701800D01*
X4363720Y1701800D02*
G01*
X4400041Y1644650D01*
X5905388Y4090415D02*
G01*
X5905388Y3981450D01*
X5905388Y4090415D02*
G01*
X5947044Y3981450D01*
X5988700Y4090415D02*
G01*
X5947044Y3981450D01*
X5988700Y4090415D02*
G01*
X5988700Y3981450D01*
X6053978Y4090415D02*
G01*
X6043818Y4085336D01*
X6033404Y4074921D01*
X6028070Y4064507D01*
X6022990Y4048760D01*
X6022990Y4022852D01*
X6028070Y4007357D01*
X6033404Y3996944D01*
X6043818Y3986529D01*
X6053978Y3981450D01*
X6074806Y3981450D01*
X6085220Y3986529D01*
X6095634Y3996944D01*
X6100968Y4007357D01*
X6106048Y4022852D01*
X6106048Y4048760D01*
X6100968Y4064507D01*
X6095634Y4074921D01*
X6085220Y4085336D01*
X6074806Y4090415D01*
X6053978Y4090415D01*
X6069726Y4002023D02*
G01*
X6100968Y3971036D01*
X6140338Y4028186D02*
G01*
X6233810Y4028186D01*
X6330584Y4090415D02*
G01*
X6278514Y4090415D01*
X6273434Y4043679D01*
X6278514Y4048760D01*
X6294008Y4054094D01*
X6309756Y4054094D01*
X6325250Y4048760D01*
X6335664Y4038600D01*
X6340998Y4022852D01*
X6340998Y4012437D01*
X6335664Y3996944D01*
X6325250Y3986529D01*
X6309756Y3981450D01*
X6294008Y3981450D01*
X6278514Y3986529D01*
X6273434Y3991610D01*
X6268100Y4002023D01*
X2146300Y1880615D02*
G01*
X2146300Y1802637D01*
X2151379Y1787144D01*
X2161793Y1776729D01*
X2177541Y1771650D01*
X2187956Y1771650D01*
X2203450Y1776729D01*
X2213863Y1787144D01*
X2218943Y1802637D01*
X2218943Y1880615D01*
X2258568Y1854707D02*
G01*
X2258568Y1859787D01*
X2263647Y1870202D01*
X2268981Y1875536D01*
X2279395Y1880615D01*
X2299970Y1880615D01*
X2310384Y1875536D01*
X2315718Y1870202D01*
X2320797Y1859787D01*
X2320797Y1849373D01*
X2315718Y1838960D01*
X2305304Y1823465D01*
X2253234Y1771650D01*
X2326131Y1771650D01*
X1547621Y2874263D02*
G01*
X1454150Y2874263D01*
X1500886Y2921000D02*
G01*
X1500886Y2827528D01*
X1563115Y2730754D02*
G01*
X1563115Y2782823D01*
X1516379Y2787904D01*
X1521460Y2782823D01*
X1526794Y2767329D01*
X1526794Y2751581D01*
X1521460Y2736087D01*
X1511300Y2725673D01*
X1495552Y2720339D01*
X1485137Y2720339D01*
X1469644Y2725673D01*
X1459229Y2736087D01*
X1454150Y2751581D01*
X1454150Y2767329D01*
X1459229Y2782823D01*
X1464310Y2787904D01*
X1474723Y2793237D01*
X1563115Y2686050D02*
G01*
X1454150Y2644647D01*
X1563115Y2602992D02*
G01*
X1454150Y2644647D01*
D14*
X1364437Y3003600D02*
G01*
X1268933Y2967278D01*
X1364437Y2930956D02*
G01*
X1268933Y2967278D01*
X1341831Y2832658D02*
G01*
X1350975Y2837230D01*
X1359865Y2846374D01*
X1364437Y2855518D01*
X1364437Y2873552D01*
X1359865Y2882696D01*
X1350975Y2891840D01*
X1341831Y2896412D01*
X1328115Y2900984D01*
X1305509Y2900984D01*
X1291793Y2896412D01*
X1282649Y2891840D01*
X1273505Y2882696D01*
X1268933Y2873552D01*
X1268933Y2855518D01*
X1273505Y2846374D01*
X1282649Y2837230D01*
X1291793Y2832658D01*
X1341831Y2734614D02*
G01*
X1350975Y2738932D01*
X1359865Y2748076D01*
X1364437Y2757220D01*
X1364437Y2775508D01*
X1359865Y2784398D01*
X1350975Y2793542D01*
X1341831Y2798114D01*
X1328115Y2802686D01*
X1305509Y2802686D01*
X1291793Y2798114D01*
X1282649Y2793542D01*
X1273505Y2784398D01*
X1268933Y2775508D01*
X1268933Y2757220D01*
X1273505Y2748076D01*
X1282649Y2738932D01*
X1291793Y2734614D01*
X1250975Y2462705D02*
G01*
X1168933Y2462705D01*
X1210081Y2503599D02*
G01*
X1210081Y2421811D01*
X1210055Y3403600D02*
G01*
X1210055Y3321812D01*
D15*
X5511800Y1854200D02*
G01*
X5219700Y1854200D01*
X5156200Y1854200D01*
X5156200Y1955800D01*
X5283200Y1955800D01*
X5918200Y1955800D01*
X6045200Y1955800D01*
X6045200Y1854200D01*
X5981700Y1854200D01*
X5981700Y1600200D01*
X5892800Y1600200D01*
X5816600Y1600200D01*
X5638800Y1600200D01*
X5562600Y1600200D01*
X5384800Y1600200D01*
X5308600Y1600200D01*
X5219700Y1600200D01*
X5219700Y1854200D01*
X5308600Y1600200D02*
G01*
X5308600Y1536700D01*
X5384800Y1600200D02*
G01*
X5384800Y1536700D01*
X5562600Y1600200D02*
G01*
X5562600Y1536700D01*
X5816600Y1600200D02*
G01*
X5816600Y1536700D01*
X5638800Y1600200D02*
G01*
X5638800Y1536700D01*
X5892800Y1600200D02*
G01*
X5892800Y1536700D01*
X5918200Y1955800D02*
G01*
X5918200Y2146300D01*
X5283200Y2146300D01*
X5283200Y1955800D01*
X5765800Y1854200D02*
G01*
X5689600Y1854200D01*
X5981700Y1854200D02*
G01*
X5943600Y1854200D01*
D16*
X3822700Y2419400D02*
G01*
X4330700Y2419400D01*
X4330700Y2101900D01*
X3822700Y2101900D01*
X3822700Y2419400D01*
X6725920Y1830260D02*
G01*
X6804659Y1830260D01*
X6764020Y1789620D02*
G01*
X6764020Y1873440D01*
X1854200Y2476500D02*
G01*
X3302000Y2476500D01*
X1854200Y2476500D02*
G01*
X1854200Y4953000D01*
X3302000Y2476500D02*
G01*
X3302000Y4953000D01*
X1854200Y4953000D01*
X2755900Y4254500D02*
G01*
X2070100Y4254500D01*
X2070100Y4838700D01*
X2197100Y4838700D01*
X2197100Y4432300D01*
X2324100Y4432300D01*
X2324100Y4838700D01*
X2438400Y4838700D01*
X2438400Y4432300D01*
X2578100Y4432300D01*
X2578100Y4838700D01*
X2692400Y4838700D01*
X2692400Y4432300D01*
X2832100Y4432300D01*
X2832100Y4838700D01*
X3200400Y4838700D01*
X2070100Y4254500D02*
G01*
X2070100Y4178300D01*
X3162300Y3289300D02*
G01*
X3162300Y3822700D01*
X2667000Y3822700D01*
X2667000Y3289300D01*
X2667000Y3289300D02*
G01*
X3162300Y3289300D01*
X2108200Y3289300D02*
G01*
X2489200Y3289300D01*
X2489200Y3670300D01*
X2108200Y3670300D01*
X2108200Y3289300D01*
X2070100Y2781300D02*
G01*
X2070100Y2933700D01*
X2120900Y2984500D01*
X2273300Y2984500D01*
X2324100Y2933700D01*
X2374900Y2984500D01*
X2527300Y2984500D01*
X2578100Y2933700D01*
X2628900Y2984500D01*
X2781300Y2984500D01*
X2832100Y2933700D01*
X2882900Y2984500D01*
X3035300Y2984500D01*
X3086100Y2933700D01*
X3086100Y2781300D01*
X3035300Y2730500D01*
X3086100Y2679700D01*
X3086100Y2527300D01*
X3035300Y2476500D01*
X2882900Y2476500D01*
X2832100Y2527300D01*
X2781300Y2476500D01*
X2628900Y2476500D01*
X2578100Y2527300D01*
X2527300Y2476500D01*
X2374900Y2476500D01*
X2324100Y2527300D01*
X2273300Y2476500D01*
X2120900Y2476500D01*
X2070100Y2527300D01*
X2070100Y2679700D01*
X2120900Y2730500D01*
X2070100Y2781300D01*
X2070100Y2806700D01*
X3969854Y4135094D02*
G01*
X3969854Y4843754D01*
X3969854Y3004794D02*
G01*
X3969854Y3713454D01*
X4698834Y2923514D02*
G01*
X4048594Y2923514D01*
X7177874Y4925034D02*
G01*
X7889074Y4925034D01*
X7889074Y2923514D02*
G01*
X7188034Y2923514D01*
X6748614Y2923514D02*
G01*
X5239854Y2923514D01*
X5239854Y4925034D02*
G01*
X6758774Y4925034D01*
X4048594Y4925034D02*
G01*
X4698834Y4925034D01*
X7967814Y4193514D02*
G01*
X7967814Y4843754D01*
X7967814Y3655034D02*
G01*
X7967814Y3004794D01*
X4282274Y3423894D02*
G01*
X4480394Y3423894D01*
X4231474Y4424654D02*
G01*
X4531194Y4424654D01*
X4602314Y4424654D02*
G01*
X4602314Y4244314D01*
X4660734Y4244314D01*
X4660734Y4424654D01*
X4602314Y4424654D01*
X4160354Y4424654D01*
X4160354Y3423894D01*
X4602314Y3423894D01*
X4602314Y3604234D01*
X4660734Y3604234D01*
X4660734Y3423894D01*
X4602314Y3423894D01*
X4602314Y3604234D02*
G01*
X4602314Y4244314D01*
X1561312Y1734286D02*
G01*
X2761310Y1734286D01*
X2761310Y534288D01*
X1561312Y534288D01*
X1561312Y1734286D01*
X1413586Y3490595D02*
G01*
X1413586Y2303602D01*
X913587Y2303602D01*
X913587Y3490595D01*
X1413586Y3490595D01*
G75*
G01*
X6978904Y1511414D02*
G03*
X6978904Y1507350I-224992J-2032D01*
G75*
G01*
X7888796Y2924302D02*
G03*
X7968806Y3004312I10J80000D01*
G75*
G01*
X7968806Y4844288D02*
G03*
X7888796Y4924298I-80000J10D01*
G75*
G01*
X4048824Y4924298D02*
G03*
X3969067Y4844288I243J-79999D01*
G75*
G01*
X3969067Y3004312D02*
G03*
X4048824Y2924302I80000J-11D01*
G75*
G01*
X4699063Y2924302D02*
G03*
X4728781Y2954274I-281J29999D01*
G75*
G01*
X7178865Y4924298D02*
G02*
X7158799Y4944364I0J20066D01*
G75*
G01*
X6758749Y4924298D02*
G03*
X6778815Y4944364I0J20066D01*
G75*
G01*
X6778815Y4944364D02*
G02*
X7158799Y4944364I189992J-19675D01*
G75*
G01*
X7189026Y2924302D02*
G03*
X7158799Y2894330I-227J-29999D01*
G75*
G01*
X5238813Y2924302D02*
G02*
X5208842Y2954274I28J30000D01*
G75*
G01*
X6748844Y2924302D02*
G02*
X6778815Y2894330I-28J-30000D01*
G75*
G01*
X7158799Y2894330D02*
G02*
X6778815Y2894330I-189992J29561D01*
G75*
G01*
X5208842Y2954274D02*
G03*
X4728781Y2954274I-240031J-29270D01*
G75*
G01*
X3969067Y4134358D02*
G02*
X3948747Y4114292I-20065J-2D01*
G75*
G01*
X3969067Y3714242D02*
G03*
X3948747Y3734308I-20065J2D01*
G75*
G01*
X3948747Y3734308D02*
G02*
X3948747Y4114292I19675J189992D01*
G75*
G01*
X5238813Y4924298D02*
G03*
X5208842Y4894326I28J-30000D01*
G75*
G01*
X4699063Y4924298D02*
G02*
X4728781Y4894326I-281J-29999D01*
G75*
G01*
X4728781Y4894326D02*
G03*
X5208842Y4894326I240030J29270D01*
G75*
G01*
X7968806Y3654298D02*
G03*
X7938833Y3684270I-30000J-28D01*
G75*
G01*
X7968806Y4194302D02*
G02*
X7938833Y4164330I-30000J28D01*
G75*
G01*
X7938833Y4164330D02*
G03*
X7938833Y3684270I29270J-240030D01*
G75*
G01
X2512111Y1127201D02*
G03X2512111Y1127201I-350012J0D01*
M02*
