G04 Layer: TopSolderMaskLayer*
G04 EasyEDA v6.5.9, 2022-08-24 00:16:20*
G04 Gerber Generator version 0.2*
G04 Scale: 100 percent, Rotated: No, Reflected: No *
G04 Dimensions in millimeters *
G04 leading zeros omitted , absolute positions ,4 integer and 5 decimal *
%FSLAX45Y45*%
%MOMM*%

%ADD10C,1.6096*%
%ADD11C,1.6256*%
%ADD12C,1.9016*%
%ADD13C,1.7272*%
%ADD14C,1.4021*%
%ADD15C,1.3716*%
%ADD16C,3.1016*%

%LPD*%
G36*
X5271261Y1367281D02*
G01*
X5271300Y1367320D01*
X5269776Y1367574D01*
X5268252Y1368336D01*
X5267236Y1369352D01*
X5266474Y1370876D01*
X5266220Y1372400D01*
X5266181Y1372362D01*
X5266181Y1523237D01*
X5266220Y1523199D01*
X5266474Y1524723D01*
X5267236Y1526247D01*
X5268252Y1527263D01*
X5269776Y1528025D01*
X5271300Y1528279D01*
X5271261Y1528318D01*
X5422138Y1528318D01*
X5422099Y1528279D01*
X5423623Y1528025D01*
X5425147Y1527263D01*
X5426163Y1526247D01*
X5426925Y1524723D01*
X5427179Y1523199D01*
X5427218Y1523237D01*
X5427218Y1372362D01*
X5427179Y1372400D01*
X5426925Y1370876D01*
X5426163Y1369352D01*
X5425147Y1368336D01*
X5423623Y1367574D01*
X5422099Y1367320D01*
X5422138Y1367281D01*
G37*
D10*
G01*
X5600700Y1447800D03*
G01*
X5854700Y1447800D03*
D11*
G01*
X3949700Y2260600D03*
G01*
X4203700Y2260600D03*
D12*
G01*
X6769100Y1663712D03*
G01*
X6769100Y1363687D03*
G36*
X2120900Y2776220D02*
G01*
X2119375Y2776473D01*
X2117852Y2777236D01*
X2116836Y2778252D01*
X2116074Y2779776D01*
X2115820Y2781300D01*
X2115820Y2933700D01*
X2116074Y2935223D01*
X2116836Y2936747D01*
X2117852Y2937763D01*
X2119375Y2938526D01*
X2120900Y2938779D01*
X2273300Y2938779D01*
X2274824Y2938526D01*
X2276347Y2937763D01*
X2277363Y2936747D01*
X2278125Y2935223D01*
X2278379Y2933700D01*
X2278379Y2781300D01*
X2278125Y2779776D01*
X2277363Y2778252D01*
X2276347Y2777236D01*
X2274824Y2776473D01*
X2273300Y2776220D01*
G37*
D13*
G01*
X2197100Y2603500D03*
G01*
X2451100Y2603500D03*
G01*
X2705100Y2857500D03*
G01*
X2705100Y2603500D03*
G36*
X2882900Y2776220D02*
G01*
X2881375Y2776473D01*
X2879852Y2777236D01*
X2878836Y2778252D01*
X2878074Y2779776D01*
X2877820Y2781300D01*
X2877820Y2933700D01*
X2878074Y2935223D01*
X2878836Y2936747D01*
X2879852Y2937763D01*
X2881375Y2938526D01*
X2882900Y2938779D01*
X3035300Y2938779D01*
X3036824Y2938526D01*
X3038347Y2937763D01*
X3039363Y2936747D01*
X3040125Y2935223D01*
X3040379Y2933700D01*
X3040379Y2781300D01*
X3040125Y2779776D01*
X3039363Y2778252D01*
X3038347Y2777236D01*
X3036824Y2776473D01*
X3035300Y2776220D01*
G37*
D11*
G01*
X2959100Y2603500D03*
G01*
X2451100Y2857500D03*
D14*
G01*
X3776979Y965200D03*
G01*
X4427220Y965200D03*
G36*
X4317834Y3556000D02*
G01*
X4316310Y3556254D01*
X4314786Y3557015D01*
X4313770Y3558031D01*
X4313008Y3559555D01*
X4312754Y3561079D01*
X4312665Y3561079D01*
X4312665Y3688079D01*
X4312754Y3688079D01*
X4313008Y3689604D01*
X4313770Y3691128D01*
X4314786Y3692144D01*
X4316310Y3692905D01*
X4317834Y3693160D01*
X4444834Y3693160D01*
X4446358Y3692905D01*
X4447882Y3692144D01*
X4448898Y3691128D01*
X4449660Y3689604D01*
X4449914Y3688079D01*
X4449825Y3688079D01*
X4449825Y3561079D01*
X4449914Y3561079D01*
X4449660Y3559555D01*
X4448898Y3558031D01*
X4447882Y3557015D01*
X4446358Y3556254D01*
X4444834Y3556000D01*
G37*
D15*
G01*
X4381665Y3825239D03*
G01*
X4381665Y4023360D03*
G01*
X4381665Y4224020D03*
D16*
G01*
X1511300Y1384300D03*
G36*
X2661411Y1229105D02*
G01*
X2661300Y1229220D01*
X2659776Y1229474D01*
X2658252Y1230236D01*
X2657236Y1231252D01*
X2656474Y1232776D01*
X2656220Y1234300D01*
X2656331Y1234186D01*
X2656331Y1534413D01*
X2656220Y1534299D01*
X2656474Y1535823D01*
X2657236Y1537347D01*
X2658252Y1538363D01*
X2659776Y1539125D01*
X2661300Y1539379D01*
X2661411Y1539494D01*
X2961386Y1539494D01*
X2961299Y1539379D01*
X2962823Y1539125D01*
X2964347Y1538363D01*
X2965363Y1537347D01*
X2966125Y1535823D01*
X2966379Y1534299D01*
X2966465Y1534413D01*
X2966465Y1234186D01*
X2966379Y1234300D01*
X2966125Y1232776D01*
X2965363Y1231252D01*
X2964347Y1230236D01*
X2962823Y1229474D01*
X2961299Y1229220D01*
X2961386Y1229105D01*
G37*
G01*
X2811297Y884301D03*
G01*
X1511300Y884301D03*
D11*
G01*
X1117600Y3149600D03*
G01*
X1117600Y2641600D03*
M02*
